<svg id="レイヤー_1" data-name="レイヤー 1" xmlns="http://www.w3.org/2000/svg" viewBox="0 0 211 131"><title>emily</title><path d="M30.15,21c0,.68-1,1.53-2.88,2.53-2.47,1.2-4,2.25-4.56,3.14q-1.2,2.1-3,5.63c-1.34,2.72-2.29,4.59-2.83,5.63-1.18,2-2,3-2.54,3q-.47,0-.81-1.77a13.58,13.58,0,0,1-.26-2.57,9.45,9.45,0,0,1,1.59-3.05l2.36-3.23c.55-.83,1.32-2.07,2.32-3.74q-5.37-.51-6.36-3.35a16.36,16.36,0,0,0,8.51-2,11.82,11.82,0,0,0,.73-4,14.92,14.92,0,0,0-.56-3.43c2.27.43,3.35,2.36,3.27,5.8a11.07,11.07,0,0,0,1.42-.13c.4,0,.73,0,1,0a4,4,0,0,1,1.72.34A1.18,1.18,0,0,1,30.15,21ZM40.93,43.34c0,.78-.46,1.16-1.37,1.16q-1.64,0-5.46-2.23c-.37.72-.86,1.56-1.46,2.53a9.37,9.37,0,0,1-5,2.88,2.75,2.75,0,0,1-1.8-1.16,20.75,20.75,0,0,1-1.12-2.36c-.37-.95-.72-1.86-1.05-2.75a7,7,0,0,1-.5-2.36,2.61,2.61,0,0,1,1.12-1.94,4.41,4.41,0,0,1,2.19-.56,31.82,31.82,0,0,1,4.94.69A12.45,12.45,0,0,0,32.12,33a6,6,0,0,1,1-3.44l1.46,3.78a16.37,16.37,0,0,1,.39,4.52,25.62,25.62,0,0,1,4,2.49A3.68,3.68,0,0,1,40.93,43.34Zm-9.88-3a7.4,7.4,0,0,0-3.65-1.16,4.48,4.48,0,0,0-1.81.38,3.41,3.41,0,0,0-.13.73,4.16,4.16,0,0,0,.75,2.15A3.2,3.2,0,0,0,28,44,5.45,5.45,0,0,0,31.05,40.38ZM43.68,26.84v.35c-.31.54-1,.81-2.06.81a7.21,7.21,0,0,1-4.08-1.76,40.9,40.9,0,0,0-4.47-2.49,20.36,20.36,0,0,1,4.25-.52,11.53,11.53,0,0,1,4.21.69A3.07,3.07,0,0,1,43.68,26.84Z"/><path d="M93.34,19.19c-.23.09-.34.22-.34.39a54.44,54.44,0,0,0-8.25,4.94,11.08,11.08,0,0,0-4.47,8.85A8.45,8.45,0,0,0,81,37.13a7.67,7.67,0,0,0,3.38,2.95q2.1,1.24,4.21,2.23,2.4,1.15,2.49,2.88a1.77,1.77,0,0,1-.3,1,1,1,0,0,1-.86.47,12.41,12.41,0,0,1-8.89-3.53,14.2,14.2,0,0,1-3.4-9.45,12.69,12.69,0,0,1,1.12-5.37,23.47,23.47,0,0,1,3.61-5.37q-4.73,1.24-8.94,2.75l-3.31,1.2a11.76,11.76,0,0,1-4.64-4.38,15.63,15.63,0,0,0,3,.64,20.76,20.76,0,0,0,4.73-1.24q2.44-.83,4.85-1.59c1.23-.35,3.07-.89,5.5-1.63.35-.15,1.29-.59,2.84-1.34a8.07,8.07,0,0,1,2.28-.94,6.51,6.51,0,0,1,2.83,1C92.76,18,93.34,18.62,93.34,19.19ZM96,28.69a.85.85,0,0,1-.28.64.83.83,0,0,1-.58.26c-.81,0-1.72-.9-2.75-2.7-.69-1.44-1.25-2.61-1.68-3.53C94.2,24.48,96,26.26,96,28.69Zm3.35-3.31a2.5,2.5,0,0,1-.13.73.86.86,0,0,1-.73.47c-.52,0-1.31-.75-2.37-2.27a32.18,32.18,0,0,1-1.8-2.75Q99.32,22.55,99.32,25.38Z"/><path d="M147.78,28.52q-1.54,10.58-8,15.77A10.71,10.71,0,0,1,136.35,46a13.38,13.38,0,0,1-3.87.65,7.9,7.9,0,0,1-5.84-2.19,8.54,8.54,0,0,1-2.15-6.06,68.78,68.78,0,0,1,1.2-10.74c.29-1.89.76-4.79,1.42-8.68l-.82-3.78a8.65,8.65,0,0,1,3.35,2.23,11.69,11.69,0,0,1,1.47,1.16.91.91,0,0,1,.25.73,5.43,5.43,0,0,1-.56,1.59,18,18,0,0,0-.85,2,61.43,61.43,0,0,0-2.15,14.39A5.8,5.8,0,0,0,129,41a4.16,4.16,0,0,0,3.48,1.68q4.38,0,9.41-5.72A45.94,45.94,0,0,0,147.78,28.52Z"/><path d="M197.83,41.19a4.45,4.45,0,0,1-.78,1.81q-1.94,2.49-10.18,2.49a18.46,18.46,0,0,1-7.26-1.37c-2.72-1.21-4.08-2.91-4.08-5.12a4.84,4.84,0,0,1,.38-2.27q1.51,3.39,4.09,4a12.44,12.44,0,0,0,3.86.56,21.41,21.41,0,0,0,4-.52c.86-.22,2-.48,3.57-.77a17.89,17.89,0,0,1,3.43-.43,5.05,5.05,0,0,1,2,.43A1.34,1.34,0,0,1,197.83,41.19Zm-2.58-19.72a1.58,1.58,0,0,1-1.35.78c-.51,0-1.19-.09-2.05-.18A21.35,21.35,0,0,0,183,24.39l1.25-1.63q-4.73-1.68-6.06-4.51a16.08,16.08,0,0,0,2.49.21c.78,0,2.19-.07,4.26-.23s3.61-.24,4.64-.24a7,7,0,0,1,3.56,1A3.83,3.83,0,0,1,195.25,21.47Z"/><path d="M32.18,59.34c-1.3.16-1.68.36-1.74,1.34,0,.62-.06,1.42-.06,3.26V72h-.72l-8.6-10.52v5.08c0,1.82.06,2.68.1,3.26,0,1,.52,1.34,2,1.48v.52H18.3V71.3c1.28-.14,1.74-.42,1.82-1.42,0-.62.08-1.5.08-3.34V61.36a1.72,1.72,0,0,0-.38-1.28c-.4-.5-.84-.64-1.78-.74v-.52h3l8.48,10.1v-5c0-1.84,0-2.64-.08-3.26-.06-.94-.5-1.22-2.12-1.34v-.52h4.88Z"/><path d="M41.7,72.06a1.46,1.46,0,0,1-.94-.38,1.79,1.79,0,0,1-.48-.9,6.37,6.37,0,0,1-2.38,1.28,2.43,2.43,0,0,1-2.42-2.44,2,2,0,0,1,1.62-2,16,16,0,0,0,3.14-1.3v-.42c0-1.42-.72-2.24-1.76-2.24a1.14,1.14,0,0,0-.92.44,3.84,3.84,0,0,0-.54,1.3.55.55,0,0,1-.56.44A.92.92,0,0,1,35.6,65c0-.26.24-.5.64-.78a8.47,8.47,0,0,1,2.86-1.4,2.75,2.75,0,0,1,1.66.54,2.82,2.82,0,0,1,1,2.34v3.82c0,.92.34,1.22.7,1.22a1.51,1.51,0,0,0,.7-.22l.2.52Zm-1.46-5c-.42.22-1.4.62-1.86.84-.74.34-1.22.72-1.22,1.44a1.46,1.46,0,0,0,1.46,1.54,2.55,2.55,0,0,0,1.62-.72Z"/><path d="M55.84,71.32a20.37,20.37,0,0,0-3.06.74v-1.3c-.36.22-.9.52-1.28.74a3.56,3.56,0,0,1-1.52.56,4.14,4.14,0,0,1-3.7-4.38,5,5,0,0,1,5.14-4.84,4,4,0,0,1,1.36.22v-3c0-1.28-.12-1.34-1.54-1.46v-.5a17.51,17.51,0,0,0,3.1-.66V69.52c0,1,.14,1.14.88,1.24l.62,0Zm-3.06-6.7a2.52,2.52,0,0,0-2.12-1c-1,0-2.64.64-2.64,3.52,0,2.42,1.5,3.7,2.8,3.72a3.39,3.39,0,0,0,2-.72Z"/><path d="M66.06,70.12a4.54,4.54,0,0,1-3.28,1.94,4,4,0,0,1-3.9-4.28,5.08,5.08,0,0,1,1.3-3.48,4,4,0,0,1,3-1.46,3.09,3.09,0,0,1,3,3.06c0,.38-.08.56-.36.64s-2.94.26-5.36.34c-.06,2.74,1.6,3.84,3,3.84a3.37,3.37,0,0,0,2.3-1Zm-3.42-6.54c-.92,0-1.82.84-2.1,2.48,1.14,0,2.38,0,3.48-.06.32,0,.44-.1.44-.4A1.87,1.87,0,0,0,62.64,63.58Z"/><path d="M74.52,65.44c-.36-1.2-.9-2-2.08-2a1.22,1.22,0,0,0-1.26,1.3c0,.88.6,1.28,1.7,1.8,1.68.8,2.54,1.4,2.54,2.72a3,3,0,0,1-3.22,2.76,5.42,5.42,0,0,1-2.34-.54c-.1-.56-.28-1.68-.36-2.32l.54-.08c.36,1.26,1.06,2.3,2.46,2.3A1.34,1.34,0,0,0,73.9,70c0-.9-.54-1.38-1.6-1.9-1.36-.68-2.5-1.3-2.5-2.74s1.24-2.56,3.08-2.56a10,10,0,0,1,1.9.26c.06.46.2,1.74.28,2.2Z"/><path d="M84.16,71.82V71.3c1.16-.14,1.32-.24,1.32-1.56V66.46c0-1.66-.62-2.5-2-2.48a3,3,0,0,0-2.12,1v4.74c0,1.3.16,1.44,1.36,1.56v.52h-4.3V71.3c1.16-.1,1.4-.22,1.4-1.56V60.06c0-1.1-.08-1.34-1.38-1.46v-.48a12.77,12.77,0,0,0,2.94-.68c0,.74,0,1.64,0,2.48V64.3a4.47,4.47,0,0,1,2.9-1.46c1.62,0,2.74,1,2.74,3.4v3.54c0,1.3.16,1.4,1.3,1.52v.52Z"/><path d="M91.42,71.82V71.3c1.26-.14,1.4-.24,1.4-1.6V65.58c0-1.24-.06-1.32-1.26-1.52V63.6a12.73,12.73,0,0,0,2.8-.8v6.9c0,1.36.14,1.46,1.44,1.6v.52Zm2.06-11a1.07,1.07,0,0,1-1-1,1.05,1.05,0,0,1,1.06-1.06,1,1,0,0,1,1,1.06A1,1,0,0,1,93.48,60.78Z"/><path d="M108.42,71.82c-1.12,0-2.24,0-2.66,0-.1-.12-3.24-3.86-3.36-4-.26-.34-.4-.44-.58-.44a1.23,1.23,0,0,0-.36,0v2.24c0,1.34.1,1.44,1.4,1.56v.52H98.5V71.3c1.32-.12,1.42-.26,1.42-1.56v-9.6c0-1.32-.14-1.36-1.36-1.54v-.48a12.31,12.31,0,0,0,2.92-.68c0,.82,0,1.68,0,2.54v7a2.32,2.32,0,0,0,1.28-.68,18.12,18.12,0,0,0,1.52-1.8c.44-.62.28-.76-.7-.84v-.54l4.06-.18v.52A3.53,3.53,0,0,0,105,64.76c-.38.4-1.24,1.34-1.68,1.88.38.54,2.42,2.88,3.08,3.58,1,1,1.24,1,2,1.08Z"/><path d="M115,62.84a4.27,4.27,0,0,1,4.32,4.46A4.46,4.46,0,0,1,115,72.06a4.37,4.37,0,0,1-4.4-4.44A4.57,4.57,0,0,1,115,62.84Zm-.24.66c-1.24,0-2.34,1.22-2.34,3.5,0,2.56,1.14,4.38,2.78,4.38,1.24,0,2.28-.9,2.28-3.64C117.46,65.42,116.5,63.5,114.74,63.5Z"/><path d="M129.46,58.82h5.28v.52c-1.56.16-1.82.3-1.82,2.08V64.9a3,3,0,0,0,1.4-.92c1.12-1.06,2.5-2.46,3.42-3.5.62-.7.54-.94-.32-1.08l-.54-.06v-.52h4.8v.52A4.3,4.3,0,0,0,138.34,61l-3.48,3.42c1.52,1.8,3.76,4.36,4.78,5.44s1.3,1.3,2.56,1.44v.52H139c-1.58-1.76-3.24-3.74-5-5.82-.46-.54-.78-.6-1.08-.58v3.82c0,1.76.18,1.9,1.82,2.06v.52h-5.28V71.3c1.64-.16,1.78-.3,1.78-2.06v-7.8c0-1.82-.14-2-1.78-2.1Z"/><path d="M150.54,72.06a1.46,1.46,0,0,1-.94-.38,1.79,1.79,0,0,1-.48-.9,6.37,6.37,0,0,1-2.38,1.28,2.43,2.43,0,0,1-2.42-2.44,2,2,0,0,1,1.62-2,16,16,0,0,0,3.14-1.3v-.42c0-1.42-.72-2.24-1.76-2.24a1.14,1.14,0,0,0-.92.44,3.84,3.84,0,0,0-.54,1.3.55.55,0,0,1-.56.44.92.92,0,0,1-.86-.86c0-.26.24-.5.64-.78a8.47,8.47,0,0,1,2.86-1.4,2.75,2.75,0,0,1,1.66.54,2.82,2.82,0,0,1,1,2.34v3.82c0,.92.34,1.22.7,1.22a1.51,1.51,0,0,0,.7-.22l.2.52Zm-1.46-5c-.42.22-1.4.62-1.86.84-.74.34-1.22.72-1.22,1.44a1.46,1.46,0,0,0,1.46,1.54,2.55,2.55,0,0,0,1.62-.72Z"/><path d="M159.58,71.82H155V71.3c1.24-.14,1.36-.24,1.36-1.54V65.6c0-1.3-.08-1.38-1.22-1.52V63.6a10.56,10.56,0,0,0,2.78-.82c0,.64,0,1.54,0,2.2.68-1,1.54-2.14,2.54-2.14a1,1,0,0,1,1.14.94,1.33,1.33,0,0,1-.66,1.08.42.42,0,0,1-.52,0,1.26,1.26,0,0,0-.9-.5c-.42,0-1.14.6-1.6,1.6v3.8c0,1.32.1,1.42,1.64,1.56Z"/><path d="M173.94,71.36a21.58,21.58,0,0,0-3,.7V70.52a4.89,4.89,0,0,1-3,1.54c-1.32,0-2.48-.82-2.48-3V65.18c0-1.06-.16-1.18-.66-1.3l-.54-.08v-.5a23,23,0,0,0,2.82-.36c-.06.62-.06,1.54-.06,2.9v2.72c0,1.76.9,2.26,1.8,2.26a3.07,3.07,0,0,0,2.16-1V65.2c0-1.08-.24-1.22-.92-1.32l-.62-.08v-.5a24.25,24.25,0,0,0,3.08-.36v6.68c0,1,.16,1.14.92,1.18l.54,0Z"/><path d="M180.8,71.8a2,2,0,0,1-.84.26c-1.26,0-1.94-.78-1.94-2.36V63.88h-1.38l-.06-.22.5-.58H178v-1.7c.38-.38,1-.9,1.32-1.3l.28,0c0,.78-.06,1.94-.06,3h2.28a.65.65,0,0,1-.12.8h-2.16V69c0,1.62.64,1.92,1.18,1.92a2.7,2.7,0,0,0,1.2-.3l.18.48Z"/><path d="M191.3,72.06a1.46,1.46,0,0,1-.94-.38,1.79,1.79,0,0,1-.48-.9,6.37,6.37,0,0,1-2.38,1.28,2.43,2.43,0,0,1-2.42-2.44,2,2,0,0,1,1.62-2,16,16,0,0,0,3.14-1.3v-.42c0-1.42-.72-2.24-1.76-2.24a1.14,1.14,0,0,0-.92.44,3.84,3.84,0,0,0-.54,1.3.55.55,0,0,1-.56.44.92.92,0,0,1-.86-.86c0-.26.24-.5.64-.78a8.47,8.47,0,0,1,2.86-1.4,2.75,2.75,0,0,1,1.66.54,2.82,2.82,0,0,1,1,2.34v3.82c0,.92.34,1.22.7,1.22a1.51,1.51,0,0,0,.7-.22l.2.52Zm-1.46-5c-.42.22-1.4.62-1.86.84-.74.34-1.22.72-1.22,1.44a1.46,1.46,0,0,0,1.46,1.54,2.55,2.55,0,0,0,1.62-.72Z"/><path d="M67.47,96.94a26.36,26.36,0,0,1-1.26,6,42.27,42.27,0,0,1-3.08,7.8c-1.63,3.23-3.35,5-5.15,5.32a3.18,3.18,0,0,1-1.34-.9c-.2-.51-.48-1.19-.85-2a21.27,21.27,0,0,1-2.28-5c1.92,1.17,3.32,1.76,4.21,1.76,1.63,0,3.11-2.26,4.42-6.79.26-.89.51-1.75.74-2.58a10.88,10.88,0,0,0,.42-2.71,3.11,3.11,0,0,0-.51-2,2.18,2.18,0,0,0-1.93-.48,12.63,12.63,0,0,0-4.47,1.55c-.83,2.06-1.84,4.3-3,6.7q-.83,2-2.62,5.5a19.79,19.79,0,0,1-1.63,2.24c-.89.89-1.55,1.34-2,1.37-.55-.31-.82-1.2-.82-2.66a6.56,6.56,0,0,1,.09-1.42l1.5-2a34.14,34.14,0,0,0,4.94-8.46L49.3,99.35a5.19,5.19,0,0,1-2-1.12,9.29,9.29,0,0,1-1.63-1.68l1.67,0c1.26,0,3.73-1,7.39-2.84a52.21,52.21,0,0,0,1.38-6l-1-2.45a4.26,4.26,0,0,1,2.65.58,5.75,5.75,0,0,1,1.35,1.4c.34.51.46.88.34,1.11l-1.46,4.51a15.6,15.6,0,0,1,4.08-1.07c.26,0,.74,0,1.42.09a6.69,6.69,0,0,1,3.91,5.11Zm12.38,1.89c0,1.55-.47,2.32-1.42,2.32a3.91,3.91,0,0,1-1.68-.43c-.57-.34-1.13-.69-1.67-1q-1.12-.43-2.28-1c1.06-.17,1.72-.94,2-2.32a12.25,12.25,0,0,0-2.15-3.26q-1.2-1.47-2-2.37a12.76,12.76,0,0,1,5.76,2.54Q79.85,95.6,79.85,98.83Z"/><path d="M119,105.1q0,4.4-4.69,7.69a16.63,16.63,0,0,1-9.11,2.88,3.87,3.87,0,0,1-2.94-1.31,4.32,4.32,0,0,1-1.23-3.07,5.43,5.43,0,0,1,1-4.08,4.19,4.19,0,0,1,3.31-2.11q2.65,0,6.44,4.52,3.62-2.41,3.48-5.76a3.44,3.44,0,0,0-2.06-3,5.88,5.88,0,0,0-3.39-1,12.81,12.81,0,0,0-7.31,2.75,47.3,47.3,0,0,0-5.71,5.07q-1.64,2.1-2.19,2.88a2.37,2.37,0,0,1-1.14-1.31,5.84,5.84,0,0,1-.15-1.27,4.32,4.32,0,0,1,.94-2.75,32.9,32.9,0,0,1,2.58-3.44c1.32-1.49,2.22-2.56,2.71-3.22,1.34-1.83,2.53-3.52,3.56-5s2.08-3,3.14-4.32c-1.78.23-2.94.35-3.48.35a3.45,3.45,0,0,1-2.66-1.25,12.69,12.69,0,0,1-1.51-1.8,10,10,0,0,0,2.11.25,14.53,14.53,0,0,0,4.29-1.5,16.67,16.67,0,0,1,4-1.5,6.06,6.06,0,0,1,2.28.81c1.06.57,1.56,1,1.5,1.25q-.65.95-4.51,5.28a76.51,76.51,0,0,0-6,8.3q5.37-2.53,8.64-2.28a8.72,8.72,0,0,1,4.88,1.52,7,7,0,0,1,3,4.41A6.37,6.37,0,0,1,119,105.1Zm-9.63,5.76q-2.19-3.23-4.21-3.22a2.22,2.22,0,0,0-1.63.94A2,2,0,0,0,103,110a2.2,2.2,0,0,0,2.36,2.45A7.37,7.37,0,0,0,109.41,110.86Z"/><path d="M156.72,89.68c0,.57-.7,1.17-2.11,1.78s-2.86,1.2-4.38,1.74a8.08,8.08,0,0,0-3.78,3.14c-.4.71-1.93,4.17-4.6,10.35q-3.65,8-4.42,8.6c-1.09-.23-1.64-1.48-1.64-3.74a4.25,4.25,0,0,1,.39-1.68s.44-.78,1.33-2.27c.29-.46.69-1.19,1.2-2.2q1.13-2.1,2.37-4.34c.86-1.66,1.65-3.27,2.36-4.85a10.9,10.9,0,0,1-6.4-2.58,27,27,0,0,0,8.85-2.75,65.37,65.37,0,0,0,1.89-6.53c-.37-1.12-.69-2-.94-2.54a17.31,17.31,0,0,0,2.4.82,2,2,0,0,1,1.46,1.72,14.84,14.84,0,0,0-1.54,5.16c1.51-.69,2.66-1.25,3.43-1.68a6.8,6.8,0,0,1,2.45.64C156.16,88.9,156.72,89.31,156.72,89.68Zm8.59,22.26q-1.16,2.57-7,2.57a15.93,15.93,0,0,1-2.45-.34,13.11,13.11,0,0,1-2.58-.69c-2.23-1.09-3.38-2.68-3.43-4.77q1.25,1.59,5.45,1.59c.63,0,1.62-.08,3-.23a27.9,27.9,0,0,1,2.92-.24,7,7,0,0,1,2.54.47A2.52,2.52,0,0,1,165.31,111.94Zm-.9-13.32a1.31,1.31,0,0,1-.43.81l-3.18.69a21.65,21.65,0,0,0-4.3,1.25L157.88,99c-2.49.21-3.92.31-4.28.31a3.82,3.82,0,0,1-1.44-.43,3,3,0,0,1-1.37-1,6,6,0,0,0,2.28-.38l3.22-1.16a11.13,11.13,0,0,1,3-.65,7,7,0,0,1,3,1C163.69,97.41,164.41,98,164.41,98.62Z"/></svg>