<svg id="レイヤー_1" data-name="レイヤー 1" xmlns="http://www.w3.org/2000/svg" viewBox="0 0 136 136"><title>emily</title><g id="ayxGhl"><path d="M76.35,72.33a7.84,7.84,0,0,1-8.09,7.94,7.9,7.9,0,1,1,8.09-7.94Z"/></g><path d="M130.5,61.81c-9-3-8.25-2.82-1.5-9-10.5-2.5-11.5-2-3.25-8-9.5.75-11-.25-7-7-9.75,2.25-11.19,1.38-8.5-4-5.07.69-12.75,10.75-8.58.75-6.4,2.47-8.37,5.58-12.47,11-3.78,5-7.56,12.27-12,16.82-1,1.06-3.06-.79-2.44-2C77.65,54.83,85.34,50.36,88.36,45c1.69-3,3.39-5.66,4.53-9.05a33.7,33.7,0,0,0,1.86-11.84c-3.33,4.75-4.71,2.71-4.21-5.12-3.54,5.12-5.17,5.46-7-4.88-5.67,8.54-5.22,3.07-7.15-4.5-3.26,5.09-3.41,10.25-8-1-3,9.56-2.57,9.38-7.76,1.19-4.31,9.44-5.06,13.81-9.62,4.31-2.25,11-3,13.82-6.88,4.75-1.46,5.42,2.19,14.69-3.87,7.92.81,4.88,4.23,12.35,8.8,18.53,4.24,5.71,8.68,7.9,12.45,15.18.59,1.13-1.19,2.62-2.12,1.75-5.89-5.45-6.86-11-11.13-16.61-2.27-3-5.14-6.71-9-8.52-5.32-2.48-7.08-3.5-10.58-3.33,5.33,7.08-2.11,3.69-8.11,3,6.63,6.67-2.08,4.56-7.23,5.23C20.15,46.14,20,47.15,9.5,47.9c6.08,4.66,6.83,5.08-3.58,7,7.66,4.58,9.25,4.75-.67,8.66,11.17,3.75,10.42,4.17,1.92,9.23,8.66,2.13,11.7,2.17,4.21,8.59,10.87.81,12.37.12,4.68,6.06,6.46-2.13,12.34-2.86,18.53-4.22C41,81.81,46.92,75,54.5,75.31c1.31.06,2.27,2.19,1.38,2.85C51,81.81,41,82.22,34.9,84.47,30.15,86.22,18.38,89,16.59,94.9c10-2.7,4.24-1.34.91,7.91,9.5-4.16,3.8-1.42,2.25,8.5,7.25-4.5,8.75-4.08,5.75,7,9-3.83,9.6-6.08,8.67,5.25,12.18-5,10.51-7.22,9.95,3.75,12.43-6,8.78-9.5,9.71,2.42,11.27-8,1.31-17.14,11.72-.27-.55-10.31,2.17-11,2.17-24.27,0-5.39-2-12.63,0-19.13.42-1.39,2.72-1,2.78,0a82.17,82.17,0,0,1-.89,15.72,40.18,40.18,0,0,0,.08,15c.78,4.19,1.14,5.73,3.64,12.73.92-8.08-.29-9.2,10.74-1.45-1.75-11.5-2.51-7.13,11.06-1.34-3.38-10.13-2.75-7.25,9.62-3.25-2.75-10.14-3.83-9.52,5.63-4.38-3.13-10.5-1.25-12.37,5.62-8.5-3.87-10.5-4-12.5,3.5-7-4-8.37-2.87-6.38,3.38-7-3.92-1.86-6.2-4.76-9.72-7.11-2.84-1.9-8.24-3.93-13.71-5.89C95.11,82,86.34,81.12,80.51,77.7c-1-.56,0-3.3,1.16-3.14,6.66,1,11.74,5.17,17.87,8a36.39,36.39,0,0,0,15.09,2.93c4.87-.31,3.68.06,8.12-1.63-4.17-3.54-3.17-2.16,5.08-5.41-5.25-3.25-6-4,1.59-8.15C123.27,67.78,121.5,67.31,130.5,61.81ZM80.38,70c-1.53.36-2.32,1.07-2.29,2.74a22.83,22.83,0,0,1-.29,2.59,8.69,8.69,0,0,1-1.27,2.13c-.07.09-.14.18-.21.29-.83,1.25-.29,2.27.49,3.3,1,1.29,11.3,15.78,10.94,16.1S75.1,83.93,74.18,82.45c-.82-1.29-1.81-1.29-3.11-.9a17.26,17.26,0,0,1-2.7.54,16.74,16.74,0,0,1-2.7-.55,1.89,1.89,0,0,0-2.45.7C62.13,83.77,50.52,97.59,50,97.18c-.33-.27,9.59-15.26,10.77-16.72.92-1.14.36-1.93-.33-2.84l-.16-.2h0a14.82,14.82,0,0,1-1.13-2.17,11.21,11.21,0,0,1-.36-2.45h0a2.23,2.23,0,0,0,0-.27c0-1.6-1.1-2-2.28-2.39-1.4-.46-17.5-7.41-17.28-8.09s17.06,4.74,18.57,5.31A2.31,2.31,0,0,0,61,66.55a14,14,0,0,1,1.84-2.07,14.71,14.71,0,0,1,2.37-1.23c1.52-.39,1.65-1.45,1.7-2.76s.89-17.18,1.65-17.18,1.22,16.38,1.39,17.81c.2,1.59,1.16,1.91,2.28,2.36a14.53,14.53,0,0,1,2.25,1.25,16.64,16.64,0,0,1,1.83,2h0a2,2,0,0,0,2.47.49c1.64-.6,18.54-5.24,18.77-4.71S81.81,69.71,80.38,70Z"/></svg>