<svg id="レイヤー_1" data-name="レイヤー 1" xmlns="http://www.w3.org/2000/svg" viewBox="0 0 125 609.06"><title>emily</title><path d="M64.32,21.08c0,1.12-1.51,2.45-4.52,4q-6,3-7.14,4.92Q50.91,32.88,48,38.8q-1.43,3-4.45,8.83c-1.8,3.19-3.12,4.78-4,4.78-.49,0-.92-.92-1.28-2.76a21.18,21.18,0,0,1-.4-4c0-.77.83-2.36,2.49-4.79q1.28-1.68,3.71-5,.74-1.08,3.64-5.86-8.43-.81-10-5.26A25.71,25.71,0,0,0,51,21.55a18.41,18.41,0,0,0,1.15-6.2A23.81,23.81,0,0,0,51.31,10q5.32,1,5.13,9.1c.4,0,1,0,1.85-.14a18.83,18.83,0,0,1,1.92-.13Q64.32,18.79,64.32,21.08ZM81.23,56.19c0,1.21-.72,1.81-2.15,1.81q-2.56,0-8.56-3.5-.88,1.68-2.29,4A14.81,14.81,0,0,1,60.34,63a4.38,4.38,0,0,1-2.86-1.89,51.83,51.83,0,0,1-3.34-8,10.57,10.57,0,0,1-.8-3.7,4.06,4.06,0,0,1,1.75-3,6.79,6.79,0,0,1,3.43-.88,50,50,0,0,1,7.75,1.08Q67.16,45,67.42,40c.13-2.6.63-4.4,1.48-5.39l2.29,5.93a25.21,25.21,0,0,1,.61,7.08,40,40,0,0,1,6.33,3.91Q81.24,53.63,81.23,56.19Zm-15.5-4.65A11.28,11.28,0,0,0,60,49.72a6.55,6.55,0,0,0-2.83.6A4.62,4.62,0,0,0,57,51.47a6.1,6.1,0,0,0,1.25,3.47A5.46,5.46,0,0,0,61,57.2Q64.19,56,65.73,51.54ZM85.54,30.85c-.49.85-1.57,1.28-3.23,1.28s-3.71-.92-6.4-2.76a47.32,47.32,0,0,0-7-3.91,31.52,31.52,0,0,1,6.67-.81,17.19,17.19,0,0,1,6.61,1.08q3.36,1.41,3.36,4.58Z"/><path d="M80.63,108q-.54.2-.54.6-9.57,5-12.94,7.75-7,5.73-7,13.88a11.44,11.44,0,0,0,1.42,6.24,14.33,14.33,0,0,0,5,4.27q3.17,1.62,6.27,3.24c2.78,1.66,4.2,3.26,4.24,4.78a2.61,2.61,0,0,1-.5,1.52,1.57,1.57,0,0,1-1.32.71,19.49,19.49,0,0,1-13.95-5.53A22.36,22.36,0,0,1,56,130.66a20.36,20.36,0,0,1,2.09-9.1,41.08,41.08,0,0,1,5.32-7.75q-7.55,2-14,4.31-1.62.61-5.19,1.89-3.84-1.76-7.28-6.87a25,25,0,0,0,4.79,1q1.61,0,7.41-2c1.71-.58,4.24-1.41,7.61-2.49,1.62-.45,4.49-1.3,8.63-2.56q1.41-.6,4.41-2.09a14.25,14.25,0,0,1,3.61-1.48,9.7,9.7,0,0,1,4.24,1.48Q80.63,106.67,80.63,108Zm4.11,14.89q0,1.41-1.35,1.41-2.08,0-4.31-4.24-.35-.61-2.63-5.53Q84.73,117.18,84.74,122.91ZM90,117.72a3.81,3.81,0,0,1-.2,1.15,1.36,1.36,0,0,1-1.15.74c-.8,0-2-1.19-3.7-3.57a46.8,46.8,0,0,1-2.83-4.32C87.36,112.76,90,114.75,90,117.72Z"/><path d="M83.19,212.34Q80.76,229,70.65,237.07a15.9,15.9,0,0,1-5.35,2.63,21.37,21.37,0,0,1-6.1,1q-5.87,0-9.2-3.47t-3.33-9.47a114.17,114.17,0,0,1,1.88-16.85q.62-3.76,2.23-13.61l-1.28-5.93q1.14.21,5.25,3.51A18.41,18.41,0,0,1,57,196.71a1.4,1.4,0,0,1,.41,1.14,9.07,9.07,0,0,1-.88,2.49c-.81,1.8-1.26,2.86-1.35,3.17q-3.36,13.55-3.37,22.57A9.09,9.09,0,0,0,53.74,232a6.64,6.64,0,0,0,5.46,2.63q6.74,0,14.76-9A77.11,77.11,0,0,0,83.19,212.34Z"/><path d="M78.87,321.92a7,7,0,0,1-1.21,2.83q-3,3.9-16,3.9A28.43,28.43,0,0,1,50.3,326.5q-6.39-2.76-6.4-8a7.72,7.72,0,0,1,.61-3.57q3.24,7.33,12.46,7.14a29.2,29.2,0,0,0,6.34-.81q8-1.87,11-1.88a7.35,7.35,0,0,1,2.83.53C78.29,320.39,78.87,321.06,78.87,321.92Zm-4-30.93a2.43,2.43,0,0,1-2.09,1.21c-.81,0-1.88-.13-3.23-.27q-6.14,0-13.88,3.64L57.58,293q-7.41-2.62-9.5-7.08a24.05,24.05,0,0,0,3.91.34q2.35,0,7-.37c3.08-.25,5.4-.37,7-.37a11.66,11.66,0,0,1,5.39,1.35Q74.36,288.5,74.83,291Z"/><path d="M69.17,390.86q0,3.7-2.49,11.05a78.79,78.79,0,0,1-4.31,10.65q-3.91,7.62-8.09,8.36a5,5,0,0,1-2.09-1.42c-.31-.81-.76-1.86-1.35-3.17a33.14,33.14,0,0,1-3.57-7.81q4.51,2.76,6.61,2.76,3.84,0,6.94-10.65c1.21-4.17,1.81-6.94,1.81-8.28,0-2.92-1.28-4.23-3.84-3.91a19.32,19.32,0,0,0-7,2.42q-.95,2.29-4.72,10.52Q46,403.87,43,410a17,17,0,0,1-2.56,3.5c-1.31,1.4-2.34,2.12-3.1,2.16-.85-.49-1.28-1.89-1.28-4.18a10.82,10.82,0,0,1,.13-2.22l2.36-3.17a63.58,63.58,0,0,0,7.75-13.27l-5.59,1.82q-3-.75-5.66-4.38l2.63-.07q3.09-.06,11.59-4.45a81.72,81.72,0,0,0,2.15-9.43l-1.48-3.84a7,7,0,0,1,6.27,3.1c.54.81.71,1.39.54,1.75l-2.3,7.07a24.1,24.1,0,0,1,6.41-1.68c.4,0,1.14,0,2.22.13a8.31,8.31,0,0,1,4.08,3.2A8.23,8.23,0,0,1,69.17,390.86Zm19.41,3c0,2.42-.74,3.64-2.23,3.64a5.54,5.54,0,0,1-2.59-.74c-.92-.5-1.81-1-2.66-1.55-1.17-.45-2.36-1-3.57-1.55,1.66-.27,2.69-1.49,3.1-3.64q-1-2.49-6.47-8.83a20.73,20.73,0,0,1,9,4Q88.58,388.91,88.58,393.83Z"/><path d="M81,493.43q0,7.08-7.34,12.06A25,25,0,0,1,59.4,510,6.08,6.08,0,0,1,54.75,508a6.87,6.87,0,0,1-1.89-4.81,8.35,8.35,0,0,1,1.49-6.41q2.35-3.3,5.19-3.3,4.17,0,10.1,7.08,5.6-3.7,5.46-9c0-1.89-1.12-3.48-3.23-4.79a10.2,10.2,0,0,0-5.33-1.55q-5.46,0-11.45,4.32a70.64,70.64,0,0,0-9,8q-2.57,3.3-3.44,4.51a4.52,4.52,0,0,1-2-4,6.77,6.77,0,0,1,1.48-4.31,42,42,0,0,1,4-5.39q1.76-2,4.25-5.06,3.36-5,10.51-14.69-4.19.54-5.46.54a5.45,5.45,0,0,1-4.18-2A21,21,0,0,1,49,464.19a15.24,15.24,0,0,0,3.3.4c1.08,0,3.32-.78,6.74-2.36s5.5-2.35,6.26-2.35a10.27,10.27,0,0,1,3.51,1.24c1.7.83,2.51,1.5,2.42,2q-.87,1.27-7.07,8.29a124.47,124.47,0,0,0-9.44,13q8.09-3.84,13.55-3.57a15.36,15.36,0,0,1,7.68,2.36,11.2,11.2,0,0,1,4.65,6.94A10.2,10.2,0,0,1,81,493.43Zm-15.09,9c-2.29-3.37-4.5-5-6.61-5a3.67,3.67,0,0,0-2.56,1.48,3.33,3.33,0,0,0-.87,2.22q0,3.64,3.7,3.85A11.66,11.66,0,0,0,65.94,502.46Z"/><path d="M71.13,558.94q0,1.89-10.18,5.53c-3,1.44-4.94,3.07-5.93,4.92q-.2.33-7.21,16.24Q42.35,598,40.87,599.1q-2.57-.54-2.56-5.86a6.65,6.65,0,0,1,.61-2.63c.27-.49,1-1.68,2.08-3.57.45-.72,1.08-1.84,1.89-3.37s2-3.82,3.71-6.87q1.62-3,3.7-7.62a17.15,17.15,0,0,1-10-4q5.46-.4,13.88-4.31a100.7,100.7,0,0,0,3-10.24c-.58-1.76-1.08-3.08-1.48-4a27.3,27.3,0,0,0,3.77,1.28,3.19,3.19,0,0,1,2.29,2.7,22.92,22.92,0,0,0-2.42,8.08c2.38-1.08,4.17-1.95,5.39-2.63a11.89,11.89,0,0,1,3.7,1C70.2,557.71,71.13,558.36,71.13,558.94ZM84.6,593.85q-1.81,4-10.91,4a23.7,23.7,0,0,1-4-.57,19.48,19.48,0,0,1-3.84-1.05q-5.25-2.49-5.39-7.48c1.3,1.67,4.16,2.5,8.56,2.5a43.79,43.79,0,0,0,4.61-.37,42.08,42.08,0,0,1,4.62-.38,10.05,10.05,0,0,1,4,.75A3.78,3.78,0,0,1,84.6,593.85ZM83.19,573a2.11,2.11,0,0,1-.68,1.28l-5,1.08a32.52,32.52,0,0,0-6.74,1.95l2.15-3.64c-3.9.32-6.13.47-6.67.47a5.72,5.72,0,0,1-2.29-.67,4.65,4.65,0,0,1-2.15-1.62,10.62,10.62,0,0,0,3.57-.6l5-1.82a14.37,14.37,0,0,1,4.65-1,12.34,12.34,0,0,1,4.82,1.68Q83.19,571.74,83.19,573Z"/><path d="M29.74,28.49c-.18-1.67-.44-2.22-1.64-2.29-.84,0-1.93-.08-4.36-.08H13.27v-1L26.93,14H20.4c-2.35,0-3.52.08-4.28.13-1.33.06-1.72.71-1.88,2.59h-.73V10.33h.73c.13,1.61.52,2.24,1.8,2.35.84.07,2,.13,4.39.13h6.65a2.3,2.3,0,0,0,1.73-.53c.65-.49.8-1,.93-2.32h.74v3.92L17.35,24.94h6.39c2.43,0,3.55-.05,4.33-.13,1.18-.08,1.54-.68,1.67-2.76h.74v6.44Z"/><path d="M13.2,48.7a2,2,0,0,1,.49-1.23,2.47,2.47,0,0,1,1.18-.63c-.71-1-1.67-2.32-1.67-3.13a3.2,3.2,0,0,1,3.21-3.18A2.65,2.65,0,0,1,19,42.67a20.61,20.61,0,0,0,1.69,4.12h.53c1.85,0,2.92-.94,2.92-2.3a1.51,1.51,0,0,0-.6-1.22,5.69,5.69,0,0,0-1.7-.71.72.72,0,0,1-.6-.75,1.25,1.25,0,0,1,1.15-1.15c.37,0,.68.34,1,.86a10.89,10.89,0,0,1,1.83,3.76,3.42,3.42,0,0,1-3.73,3.52h-5c-1.2,0-1.56.45-1.56.92a2.09,2.09,0,0,0,.28.93l-.73.27Zm6.6-1.91c-.29-.57-.84-1.83-1.1-2.43-.44-1-.94-1.59-1.9-1.59a1.9,1.9,0,0,0-2,1.88,3.47,3.47,0,0,0,.94,2.14Z"/><path d="M14.16,75a27.88,27.88,0,0,0-1-4.05h1.69c-.28-.47-.65-1.15-.94-1.62a4.66,4.66,0,0,1-.75-2.06c0-2.09,2.08-4.85,5.74-4.85a6.57,6.57,0,0,1,6.34,6.76A5.2,5.2,0,0,1,25,71h3.84c1.67,0,1.72-.18,1.88-2h.68A25.51,25.51,0,0,0,32.28,73H16.54c-1.36,0-1.49.19-1.59,1.15l-.06.84ZM22.93,71a3.25,3.25,0,0,0,1.33-2.74c0-1.25-.83-3.47-4.59-3.47-3.16,0-4.83,2-4.86,3.63A4.66,4.66,0,0,0,15.75,71Z"/><path d="M15.73,96.12a5.92,5.92,0,0,1-2.53-4.33c0-3.18,2.61-5.11,5.61-5.11a6.72,6.72,0,0,1,4.57,1.69,5.38,5.38,0,0,1,1.9,3.89,4.08,4.08,0,0,1-4,4c-.53,0-.76-.11-.87-.53s-.33-3.86-.44-7c-3.5-.07-4.93,2.07-4.93,3.92a4.41,4.41,0,0,0,1.33,3Zm8.56-4.48c0-1.21-1.12-2.38-3.24-2.74,0,1.46,0,2.92.08,4.46,0,.47.13.62.52.62A2.42,2.42,0,0,0,24.29,91.64Z"/><path d="M21.86,115c1.52-.47,2.56-1.2,2.56-2.79a1.62,1.62,0,0,0-1.7-1.67c-1.15,0-1.69.86-2.32,2.27-.94,2.14-1.77,3.37-3.58,3.37-2.4,0-3.62-2.2-3.62-4.26a6.85,6.85,0,0,1,.75-3.11c.76-.13,2.25-.36,3.11-.47l.13.76c-1.67.47-3.11,1.39-3.11,3.21a1.79,1.79,0,0,0,1.78,1.88c1.17,0,1.8-.7,2.43-2.14.78-1.7,1.64-3.37,3.62-3.37s3.37,1.67,3.37,4.13a14.19,14.19,0,0,1-.34,2.56c-.62.07-2.27.26-2.89.39Z"/><path d="M13.51,135.3h.73c.16,1.52.29,1.73,2,1.73h4.28c2.17,0,3.26-.84,3.24-2.59a3.72,3.72,0,0,0-1.36-2.76H16.25c-1.7,0-1.85.21-2,1.77h-.73v-5.69h.73c.13,1.51.26,1.85,2,1.85H28.83c1.38,0,1.72-.07,1.88-1.82h.68a16,16,0,0,0,.89,3.89h-8.9a5.87,5.87,0,0,1,1.9,3.78c0,2.14-1.33,3.63-4.46,3.63h-4.6c-1.72,0-1.85.21-2,1.72h-.73Z"/><path d="M13.51,152.56h.73c.16,1.64.29,1.82,2.06,1.82h5.38c1.62,0,1.72-.07,2-1.64h.63a16.92,16.92,0,0,0,1,3.71h-9c-1.77,0-1.9.18-2.06,1.88h-.73Zm14.38,2.71a1.42,1.42,0,0,1,1.38-1.38,1.41,1.41,0,0,1,1.44,1.41,1.36,1.36,0,0,1-1.44,1.33A1.39,1.39,0,0,1,27.89,155.27Z"/><path d="M13.51,182.63c0-1.41,0-2.95,0-3.5.18-.16,5-4.23,5.19-4.41.42-.34.55-.52.55-.76a1.71,1.71,0,0,0-.05-.47h-2.9c-1.75,0-1.85.13-2,1.83h-.73v-5.77h.73c.16,1.75.34,1.88,2,1.88H28.73c1.69,0,1.75-.18,2-1.8h.68a15.93,15.93,0,0,0,.89,3.86H19.83a3,3,0,0,0,.91,1.67,21.56,21.56,0,0,0,2.35,2c.76.54,1,.34,1.07-.92h.73l.23,5.38h-.7a4.69,4.69,0,0,0-1.67-3.47c-.52-.5-1.78-1.65-2.45-2.19-.73.52-3.76,3.18-4.68,4-1.25,1.25-1.33,1.62-1.38,2.64Z"/><path d="M25.28,198.94a5.61,5.61,0,0,1-5.85,5.69,5.85,5.85,0,0,1-6.23-5.69A5.72,5.72,0,0,1,19,193.15,6,6,0,0,1,25.28,198.94Zm-.89-.31c0-1.59-1.54-3-4.56-3-3.32,0-5.72,1.46-5.72,3.6,0,1.62,1.17,3,4.75,3C21.91,202.18,24.39,200.92,24.39,198.63Z"/><path d="M30.48,233.45v7h-.74c-.18-2-.36-2.4-2.68-2.4H22.57a3.69,3.69,0,0,0,1.2,1.88c1.38,1.46,3.16,3.21,4.51,4.41.89.78,1.23.7,1.39-.42l.07-.73h.74v6.34h-.74a5.54,5.54,0,0,0-2.16-4.38c-.76-.79-2.74-2.82-4.39-4.49-2.35,2-5.69,4.88-7.12,6.23s-1.65,1.68-1.83,3.29h-.73V246c2.27-2,4.8-4.13,7.57-6.5a1.6,1.6,0,0,0,.76-1.46h-5c-2.27,0-2.46.23-2.64,2.4h-.73v-7h.73c.18,2.14.37,2.35,2.64,2.35H27.06c2.35,0,2.53-.18,2.68-2.35Z"/><path d="M13.2,268.84a1.93,1.93,0,0,1,.49-1.22,2.47,2.47,0,0,1,1.18-.63c-.71-1-1.67-2.32-1.67-3.13a3.2,3.2,0,0,1,3.21-3.19A2.66,2.66,0,0,1,19,262.81a20.75,20.75,0,0,0,1.69,4.13h.53c1.85,0,2.92-.94,2.92-2.3a1.54,1.54,0,0,0-.6-1.23,5.71,5.71,0,0,0-1.7-.7.73.73,0,0,1-.6-.76,1.26,1.26,0,0,1,1.15-1.15c.37,0,.68.34,1,.87a10.83,10.83,0,0,1,1.83,3.75A3.42,3.42,0,0,1,21.55,269h-5c-1.2,0-1.56.44-1.56.91a2.17,2.17,0,0,0,.28.94l-.73.26Zm6.6-1.9c-.29-.58-.84-1.83-1.1-2.43-.44-1-.94-1.59-1.9-1.59a1.9,1.9,0,0,0-2,1.88,3.47,3.47,0,0,0,.94,2.14Z"/><path d="M13.51,288.45v-6h.73c.16,1.65.29,1.8,2,1.8h5.43c1.73,0,1.8-.1,2-1.61h.65a14.56,14.56,0,0,0,1.07,3.68H22.49c1.36.91,2.79,2,2.79,3.31A1.35,1.35,0,0,1,24,291.14a1.76,1.76,0,0,1-1.44-.89.53.53,0,0,1,.05-.68,1.64,1.64,0,0,0,.66-1.18c0-.54-.81-1.51-2.14-2.08H16.25c-1.72,0-1.85.13-2,2.14Z"/><path d="M14.11,315.07a29.88,29.88,0,0,0-.91-4h2c-1.18-1.41-2-2.56-2-4,0-1.75,1.07-3.26,3.91-3.26h5.07c1.4,0,1.56-.21,1.69-.86l.13-.73h.68a34.13,34.13,0,0,0,.47,3.73c-.83-.08-2.09-.08-3.81-.08H17.79c-2.3,0-2.95,1.2-2.95,2.38a4.16,4.16,0,0,0,1.25,2.82h6.09c1.4,0,1.59-.32,1.72-1.2L24,309h.68a38.59,38.59,0,0,0,.47,4.1H16.41c-1.31,0-1.49.21-1.54,1.2l0,.73Z"/><path d="M13.54,331.78a2.62,2.62,0,0,1-.34-1.13c0-1.67,1-2.55,3.1-2.55h7.6v-1.81l.31-.1.76.71v1.2h2.19c.52.49,1.2,1.25,1.72,1.74l-.05.4c-1.09-.06-2.61-.08-3.86-.08v3A.81.81,0,0,1,23.9,333v-2.82H17.22c-2.12,0-2.51.83-2.51,1.51a3.72,3.72,0,0,0,.42,1.59l-.68.24Z"/><path d="M13.2,353.26a2,2,0,0,1,.49-1.23,2.45,2.45,0,0,1,1.18-.62c-.71-1.05-1.67-2.33-1.67-3.14a3.2,3.2,0,0,1,3.21-3.18A2.65,2.65,0,0,1,19,347.23a20.61,20.61,0,0,0,1.69,4.12h.53c1.85,0,2.92-.94,2.92-2.29a1.53,1.53,0,0,0-.6-1.23,5.69,5.69,0,0,0-1.7-.71.72.72,0,0,1-.6-.75,1.25,1.25,0,0,1,1.15-1.15c.37,0,.68.34,1,.86a10.89,10.89,0,0,1,1.83,3.76,3.42,3.42,0,0,1-3.73,3.52h-5c-1.2,0-1.56.45-1.56.92a2.17,2.17,0,0,0,.28.94l-.73.26Zm6.6-1.91c-.29-.57-.84-1.82-1.1-2.42-.44-1-.94-1.6-1.9-1.6a1.9,1.9,0,0,0-2,1.88,3.47,3.47,0,0,0,.94,2.14Z"/></svg>