<svg id="レイヤー_1" data-name="レイヤー 1" xmlns="http://www.w3.org/2000/svg" viewBox="0 0 185.44 185.44"><title>logo</title><g id="ayxGhl"><path d="M102.51,97.17a9,9,0,0,1-9.26,9.1,9,9,0,1,1,9.26-9.1Z"/></g><path d="M154.37,85.48c-3-.13-6.69.11-2.64-4.26,2.21-2.38,1.58-4-1.6-4.76-1.12-.28-2.7-.14-3.54-2.64.43-.22,1.19-.58,1.9-1s1.41-.91.95-1.93c-3.81-1-3.81-1-4.75-4.8,0-.15-.19-.39-.28-.39-4.95,0-7.26-6.22-13.14-4.92-6.7,1.48-13,3.81-17.07,9.25-3.78,5-4.75,9.84-9.23,14.39-1,1.06-2.92-.44-2.3-1.62,2.92-5.61,7.67-8,10.69-13.41,1.69-3,3.3-6,3.74-9.55,1.12-8.89-1-16.12-9-20-5,2.95-4.15-4-6.94-4-2.21,4.39-2.26,4.43-5.24.76-1.35-1.67-2.38-2.71-4.21-.48-1,1.19-1.24,3.73-3.2,3.21-1.1-.29-1.72-2.34-2.33-3.24-3,0-1.47,8.27-6.75,3a12.3,12.3,0,0,0-1.63,1.68c-.82,1.22-1.47,3.66-2.6,3.36-4-1.09-3.5,2.29-4,4-2.46,7.54-1.67,15.35,2.9,21.52,3.69,5,7.31,7.37,10.68,12.7.86,1.37-1.53,2.81-2.59,1.59-4-4.62-5.25-9.18-8.89-14a21.71,21.71,0,0,0-8.63-6.91c-5.31-2.48-11.75-6.33-17,.79-1.09,1.5-7.85-1.73-3.58,4.27.35.49-1.1,1-1.85,1.21-1.64.5-3.69-.18-5.11,1.9,4,2.27,4.1,4-.72,5-2.91.59-2.84,2.07-1.3,4.24.79,1.1,2.4,2,1.9,3.69-1.23,1.39-3.38-.54-3.93.42-1.17,3.57,7.07,4.73.72,8.24.44.67.84,1.37,1.31,2,.67.94,2.17,2.17,1.95,2.71-1.89,4.6,2.25,5.08,4.46,6.69,5.54,4,11.9,4.72,18.09,3.36,6.39-1.41,11.16-5.68,17.34-6.75,1.29-.23,1.8,2.59.76,2.94-5.52,1.86-11.73,2.81-17.79,5.05-7.34,2.72-11.95,8-14.08,15.64-.33,1.18-1.39,3.25-.18,3.64,4,1.26-1.28,8.57,5.3,7.68a13.27,13.27,0,0,0-.1,2c.12,1.41-.77,2.92.51,4.54,3.84-3.15,4.95-1.57,4.5,2.68-.28,2.77,1.45,3.2,3.44,2.28,4.55-2.09,5.2-.24,3.65,3.83,4.34-1,4.34-1,7.84,1.18.13.08.36.18.44.12,2.88-2,6.46-.16,9.09-1.22,7.48-3,12.67-13.54,12.41-21.64-.17-5.38-1-8.91-.73-15.37.07-1.45,2.86-1.07,2.92-.09a49.51,49.51,0,0,1-.3,12.06c-.94,6.23-.48,9.75,1.43,14.34,3.32,8,9.37,11.69,18.86,12.1.91,0,1.59.05,1.3-1.3-.74-3.45,1.31-1.84,2.71-1.44s2.61,2.08,4.91,1.25c-2.8-5.06-.42-5.11,3.46-3.61,2.21.85,3.71.37,3.38-2.32-.62-5.06,1.53-5.1,5-2.46.08-7.75.08-7.75,3.6-6.89,1-2.22-1.66-5.36.38-6.56,2.86-1.68,1.45-3.37,1-5C138.05,116,129.92,110,124.45,108c-3.74-1.34-10.06-1.76-15.46-4-.9-.38-.09-2.89.86-2.68,5.29,1.15,9.43,3.26,14.69,5.67,7.54,3.46,16,2,23.11-3.46,1.16-.9,3.2-2.73,3-3-2.53-3.9,2.46-4.79,2.78-7.55-.9-.21-2.49-.21-2.67-.71C149.65,89,154.79,88.76,154.37,85.48Zm-47.44,9c-1.73.4-2.63,1.2-2.59,3.1a25.6,25.6,0,0,1-.32,2.92,9.86,9.86,0,0,1-1.44,2.41q-.12.15-.24.33c-.93,1.42-.33,2.56.55,3.73,1.1,1.45,5.79,9.35,5.38,9.71s-7.31-6.5-8.35-8.17c-.92-1.46-2-1.46-3.52-1a19.33,19.33,0,0,1-3.05.61,19.06,19.06,0,0,1-3-.62,2.13,2.13,0,0,0-2.76.79c-1.24,1.73-8.19,8.89-8.78,8.42-.37-.3,4.67-8.78,6-10.43,1-1.29.4-2.18-.37-3.21a2.33,2.33,0,0,0-.19-.23h0a16.53,16.53,0,0,1-1.27-2.45,12.66,12.66,0,0,1-.41-2.77h0c0-.1,0-.19,0-.3,0-1.81-1.24-2.27-2.57-2.7-1.59-.52-9.81-4.43-9.56-5.2s9.3,1.41,11,2c1.45.55,2.54.48,3.54-.93a15.86,15.86,0,0,1,2.08-2.34,17.13,17.13,0,0,1,2.67-1.38c1.73-.45,1.87-1.65,1.93-3.12s.63-10.8,1.48-10.8,1.76,9.9,2,11.5c.22,1.8,1.31,2.17,2.58,2.68a16,16,0,0,1,2.53,1.41,19.76,19.76,0,0,1,2.08,2.32h0a2.2,2.2,0,0,0,2.78.55c1.86-.67,11.23-2.69,11.48-2.09S108.55,94.06,106.93,94.44Z"/></svg>