<svg id="レイヤー_1" data-name="レイヤー 1" xmlns="http://www.w3.org/2000/svg" viewBox="0 0 185.44 696"><title>logo-text</title><path d="M106.08,78.76c-.31-2.88-.76-3.82-2.83-4-1.44,0-3.33-.13-7.52-.13h-18V73L101.22,53.7H90c-4,0-6.07.13-7.38.22-2.29.09-3,1.22-3.24,4.46H78.09V47.44h1.26c.23,2.79.9,3.87,3.11,4.05,1.44.14,3.46.23,7.56.23h11.47a3.92,3.92,0,0,0,3-.9c1.13-.86,1.4-1.8,1.62-4h1.26v6.75L84.71,72.64h11c4.19,0,6.12-.09,7.47-.22,2-.14,2.66-1.17,2.88-4.77h1.26V78.76Z"/><path d="M77.55,113.59a3.27,3.27,0,0,1,.86-2.11,4.1,4.1,0,0,1,2-1.08c-1.21-1.8-2.88-4-2.88-5.4a5.52,5.52,0,0,1,5.54-5.49c2.2,0,3.64,1.21,4.5,3.69.94,2.74,2.11,6.12,2.92,7.11h.9c3.2,0,5-1.62,5-4a2.61,2.61,0,0,0-1-2.12A9.65,9.65,0,0,0,92.49,103a1.25,1.25,0,0,1-1-1.31,2.17,2.17,0,0,1,2-2c.63,0,1.17.59,1.8,1.49a18.9,18.9,0,0,1,3.15,6.48A5.91,5.91,0,0,1,92,113.77H83.27c-2.07,0-2.7.77-2.7,1.58a3.59,3.59,0,0,0,.49,1.62l-1.26.45Zm11.39-3.28c-.5-1-1.44-3.15-1.89-4.19-.77-1.71-1.62-2.74-3.29-2.74a3.27,3.27,0,0,0-3.46,3.24,6,6,0,0,0,1.62,3.69Z"/><path d="M79.22,159a47.13,47.13,0,0,0-1.67-7h2.93c-.5-.81-1.13-2-1.62-2.79a8.17,8.17,0,0,1-1.31-3.56c0-3.6,3.6-8.37,9.9-8.37s10.94,5.49,10.94,11.66a9.07,9.07,0,0,1-.5,3.06h6.62c2.88,0,3-.32,3.24-3.51h1.17a43.59,43.59,0,0,0,1.53,7.06H83.31c-2.34,0-2.56.32-2.74,2L80.48,159Zm15.12-7a5.65,5.65,0,0,0,2.29-4.73c0-2.16-1.44-6-7.92-6-5.44,0-8.32,3.37-8.37,6.25A8.1,8.1,0,0,0,82,152Z"/><path d="M81.92,195.36c-3.6-2.88-4.37-6-4.37-7.47,0-5.49,4.5-8.82,9.68-8.82A11.56,11.56,0,0,1,95.1,182a9.23,9.23,0,0,1,3.29,6.71,7,7,0,0,1-7,6.88c-.9,0-1.3-.18-1.48-.9-.18-.9-.59-6.66-.77-12-6-.14-8.5,3.55-8.5,6.75A7.62,7.62,0,0,0,83,194.64Zm14.76-7.74c0-2.07-1.94-4.1-5.58-4.73,0,2.52,0,5,.13,7.7,0,.81.23,1.08.9,1.08A4.19,4.19,0,0,0,96.68,187.62Z"/><path d="M92.49,227.85c2.61-.81,4.41-2.07,4.41-4.82A2.8,2.8,0,0,0,94,220.15c-2,0-2.93,1.49-4,3.92-1.62,3.69-3.06,5.8-6.16,5.8-4.14,0-6.26-3.78-6.26-7.33a11.72,11.72,0,0,1,1.31-5.36c1.3-.22,3.87-.63,5.35-.81l.23,1.31c-2.88.81-5.36,2.38-5.36,5.53a3.08,3.08,0,0,0,3.06,3.24c2,0,3.11-1.21,4.19-3.69,1.35-2.92,2.83-5.8,6.25-5.8s5.81,2.88,5.81,7.11a23.85,23.85,0,0,1-.59,4.41c-1.08.13-3.91.45-5,.67Z"/><path d="M78.09,262.9h1.26c.27,2.61.5,3,3.47,3H90.2c3.73,0,5.62-1.44,5.58-4.45a6.44,6.44,0,0,0-2.34-4.77H82.82c-2.93,0-3.2.36-3.47,3.06H78.09V249.9h1.26c.23,2.61.45,3.19,3.47,3.19h21.69c2.38,0,3-.13,3.24-3.15h1.17a27.62,27.62,0,0,0,1.53,6.71H95.1c1.62,1.62,3.29,4.09,3.29,6.52,0,3.69-2.3,6.25-7.7,6.25H82.77c-3,0-3.19.37-3.42,3H78.09Z"/><path d="M78.09,292.64h1.26c.27,2.84.5,3.15,3.56,3.15h9.27c2.79,0,3-.13,3.42-2.83h1.08a29.11,29.11,0,0,0,1.8,6.39H82.91c-3.06,0-3.29.32-3.56,3.24H78.09Zm24.8,4.69a2.43,2.43,0,0,1,4.86,0,2.36,2.36,0,0,1-2.48,2.3A2.39,2.39,0,0,1,102.89,297.33Z"/><path d="M78.09,344.48c0-2.43,0-5.08-.09-6,.32-.27,8.69-7.29,9-7.6.72-.59.94-.9.94-1.31a2.78,2.78,0,0,0-.09-.81h-5c-3,0-3.2.23-3.47,3.15H78.09v-9.94h1.26c.27,3,.59,3.24,3.47,3.24h21.51c2.92,0,3-.32,3.42-3.1h1.17a27.65,27.65,0,0,0,1.53,6.65H89a5.39,5.39,0,0,0,1.58,2.88,33.68,33.68,0,0,0,4,3.42c1.3,1,1.66.59,1.84-1.57h1.26l.41,9.27H96.9c-.49-3.15-.85-4.05-2.88-6-.9-.85-3.06-2.83-4.23-3.78-1.26.9-6.48,5.49-8.05,7-2.16,2.16-2.3,2.79-2.39,4.54Z"/><path d="M98.39,372.61a9.68,9.68,0,0,1-10.08,9.81c-7.29,0-10.76-5.4-10.76-9.81a9.88,9.88,0,0,1,10-10C94.92,362.62,98.39,368.33,98.39,372.61Zm-1.53-.54c0-2.75-2.66-5.22-7.88-5.22-5.71,0-9.85,2.52-9.85,6.21,0,2.79,2,5.13,8.19,5.13C92.58,378.19,96.86,376,96.86,372.07Z"/><path d="M107.34,432.1v12h-1.26c-.31-3.51-.63-4.14-4.63-4.14H93.71c.09.9.81,1.94,2.07,3.24,2.38,2.52,5.44,5.54,7.78,7.61,1.53,1.35,2.12,1.21,2.39-.72l.13-1.26h1.26v10.93h-1.26c-.4-3.37-.63-4.54-3.73-7.56-1.31-1.35-4.73-4.86-7.56-7.74-4.05,3.42-9.81,8.42-12.29,10.76s-2.83,2.88-3.15,5.67H78.09v-7.2c3.92-3.47,8.28-7.11,13-11.21A2.73,2.73,0,0,0,92.45,440H83.9c-3.92,0-4.23.41-4.55,4.14H78.09v-12h1.26c.32,3.69.63,4,4.55,4h17.55c4,0,4.36-.32,4.63-4Z"/><path d="M77.55,493.12a3.28,3.28,0,0,1,.86-2.12,4.27,4.27,0,0,1,2-1.08c-1.21-1.8-2.88-4-2.88-5.4A5.53,5.53,0,0,1,83.09,479c2.2,0,3.64,1.22,4.5,3.69.94,2.75,2.11,6.12,2.92,7.11h.9c3.2,0,5-1.62,5-4a2.6,2.6,0,0,0-1-2.11,9.62,9.62,0,0,0-2.93-1.22,1.24,1.24,0,0,1-1-1.3,2.16,2.16,0,0,1,2-2c.63,0,1.17.58,1.8,1.48a19.08,19.08,0,0,1,3.15,6.48A5.93,5.93,0,0,1,92,493.3H83.27c-2.07,0-2.7.76-2.7,1.57a3.55,3.55,0,0,0,.49,1.62l-1.26.45Zm11.39-3.29c-.5-1-1.44-3.15-1.89-4.18-.77-1.71-1.62-2.75-3.29-2.75a3.27,3.27,0,0,0-3.46,3.24,6,6,0,0,0,1.62,3.69Z"/><path d="M78.09,526.91V516.56h1.26c.27,2.84.5,3.11,3.42,3.11h9.36c3,0,3.11-.18,3.42-2.79h1.13a25.06,25.06,0,0,0,1.84,6.34h-5c2.34,1.58,4.82,3.47,4.82,5.72a2.33,2.33,0,0,1-2.16,2.61A3,3,0,0,1,93.75,530a.89.89,0,0,1,.09-1.17,2.85,2.85,0,0,0,1.13-2c0-.94-1.4-2.61-3.69-3.6H82.82c-3,0-3.2.23-3.47,3.69Z"/><path d="M79.13,572.81a51.66,51.66,0,0,0-1.58-6.88H81c-2-2.43-3.47-4.41-3.47-6.89,0-3,1.85-5.62,6.75-5.62H93c2.43,0,2.7-.36,2.93-1.49l.22-1.26h1.17a61,61,0,0,0,.81,6.44c-1.44-.14-3.6-.14-6.57-.14H85.47c-4,0-5.08,2.07-5.08,4.1a7.12,7.12,0,0,0,2.16,4.86H93c2.43,0,2.75-.54,3-2.07l.18-1.44h1.17a64.71,64.71,0,0,0,.81,7.06H83.09c-2.25,0-2.57.36-2.66,2.07l0,1.26Z"/><path d="M78.14,601.61a4.46,4.46,0,0,1-.59-1.93c0-2.88,1.76-4.41,5.36-4.41H96v-3.11l.54-.18,1.31,1.22v2.07h3.78c.9.85,2.07,2.16,3,3l-.09.68c-1.89-.09-4.5-.14-6.66-.14V604a1.41,1.41,0,0,1-1.85-.27v-4.86H84.48c-3.64,0-4.32,1.44-4.32,2.61a6.53,6.53,0,0,0,.72,2.75l-1.17.4Z"/><path d="M77.55,638.65a3.28,3.28,0,0,1,.86-2.12,4.27,4.27,0,0,1,2-1.08c-1.21-1.8-2.88-4-2.88-5.4a5.53,5.53,0,0,1,5.54-5.49c2.2,0,3.64,1.22,4.5,3.69.94,2.75,2.11,6.12,2.92,7.11h.9c3.2,0,5-1.62,5-4a2.6,2.6,0,0,0-1-2.11,9.62,9.62,0,0,0-2.93-1.22,1.24,1.24,0,0,1-1-1.3,2.16,2.16,0,0,1,2-2c.63,0,1.17.58,1.8,1.48a19.08,19.08,0,0,1,3.15,6.48A5.93,5.93,0,0,1,92,638.83H83.27c-2.07,0-2.7.76-2.7,1.57a3.55,3.55,0,0,0,.49,1.62l-1.26.45Zm11.39-3.29c-.5-1-1.44-3.15-1.89-4.18-.77-1.71-1.62-2.75-3.29-2.75a3.27,3.27,0,0,0-3.46,3.24,6,6,0,0,0,1.62,3.69Z"/></svg>