<svg id="レイヤー_1" data-name="レイヤー 1" xmlns="http://www.w3.org/2000/svg" viewBox="0 0 185.44 696"><title>logo-text-ja</title><path d="M96.09,55.9c0,1.13-1.51,2.45-4.52,4q-6,3-7.14,4.92-1.75,2.9-4.72,8.83-1.41,3-4.44,8.82-2.7,4.78-4,4.79c-.49,0-.92-.92-1.28-2.77a21.11,21.11,0,0,1-.4-4c0-.76.83-2.36,2.49-4.78q1.28-1.68,3.71-5.06c.49-.71,1.7-2.67,3.63-5.86q-8.41-.81-10-5.25a25.81,25.81,0,0,0,13.34-3.1A18.45,18.45,0,0,0,84,50.18a23.73,23.73,0,0,0-.88-5.39q5.33,1,5.12,9.09a18.61,18.61,0,0,0,1.86-.13c.83-.09,1.47-.14,1.92-.14C94.72,53.61,96.09,54.38,96.09,55.9ZM113,91c0,1.21-.72,1.82-2.16,1.82q-2.55,0-8.55-3.5c-.59,1.12-1.35,2.45-2.29,4a14.86,14.86,0,0,1-7.89,4.52,4.35,4.35,0,0,1-2.86-1.89,52.81,52.81,0,0,1-3.34-8,10.43,10.43,0,0,1-.81-3.71,4.11,4.11,0,0,1,1.76-3,6.89,6.89,0,0,1,3.43-.88A50.2,50.2,0,0,1,98,81.44q.88-1.62,1.15-6.6c.13-2.61.63-4.4,1.48-5.39L103,75.38a25.11,25.11,0,0,1,.61,7.07,42.13,42.13,0,0,1,6.33,3.91Q113,88.45,113,91ZM97.5,86.36a11.37,11.37,0,0,0-5.72-1.82,6.42,6.42,0,0,0-2.83.61,4.49,4.49,0,0,0-.21,1.14A6.08,6.08,0,0,0,90,89.76,5.36,5.36,0,0,0,92.79,92C94.9,91.21,96.47,89.33,97.5,86.36Zm19.81-20.69c-.49.86-1.57,1.29-3.23,1.29s-3.71-.92-6.4-2.77a49.2,49.2,0,0,0-7-3.91,32.12,32.12,0,0,1,6.67-.8,17.31,17.31,0,0,1,6.6,1.07c2.25,1,3.37,2.47,3.37,4.59Z"/><path d="M112.39,142.84c-.36.14-.53.34-.53.61q-9.57,5-12.94,7.75-7,5.73-7,13.88a11.42,11.42,0,0,0,1.42,6.23,14.34,14.34,0,0,0,5,4.28l6.27,3.23c2.78,1.67,4.2,3.26,4.24,4.79a2.52,2.52,0,0,1-.51,1.51,1.51,1.51,0,0,1-1.31.71,19.52,19.52,0,0,1-13.95-5.52,22.35,22.35,0,0,1-5.32-14.83,20.35,20.35,0,0,1,2.09-9.09,40.76,40.76,0,0,1,5.32-7.75q-7.54,2-14,4.31L76,154.84q-3.84-1.76-7.28-6.88a24.3,24.3,0,0,0,4.78,1q1.62,0,7.42-1.95c1.7-.58,4.24-1.42,7.61-2.49,1.62-.45,4.49-1.31,8.63-2.56.94-.41,2.41-1.1,4.41-2.09a14.65,14.65,0,0,1,3.6-1.49,9.74,9.74,0,0,1,4.25,1.49C111.41,141,112.39,141.94,112.39,142.84Zm4.12,14.89c0,1-.45,1.42-1.35,1.42-1.4,0-2.83-1.42-4.32-4.25-.22-.4-1.1-2.24-2.62-5.52Q116.5,152,116.51,157.73Zm5.25-5.19a3.71,3.71,0,0,1-.2,1.15,1.35,1.35,0,0,1-1.15.74q-1.22,0-3.7-3.57a47,47,0,0,1-2.83-4.31Q121.76,148.1,121.76,152.54Z"/><path d="M115,247.16q-2.43,16.65-12.54,24.73a15.77,15.77,0,0,1-5.36,2.63,20.91,20.91,0,0,1-6.09,1q-5.86,0-9.2-3.47t-3.34-9.47a114.42,114.42,0,0,1,1.89-16.84c.4-2.52,1.15-7.05,2.22-13.61l-1.28-5.93q1.15.19,5.26,3.5a19.4,19.4,0,0,1,2.29,1.82,1.43,1.43,0,0,1,.4,1.15,8.9,8.9,0,0,1-.87,2.49c-.81,1.8-1.26,2.85-1.35,3.17q-3.37,13.54-3.37,22.57a9.06,9.06,0,0,0,1.89,5.86A6.64,6.64,0,0,0,91,269.4q6.73,0,14.75-9A76.67,76.67,0,0,0,115,247.16Z"/><path d="M110.64,356.74a7,7,0,0,1-1.21,2.83q-3,3.92-16,3.91a28.43,28.43,0,0,1-11.39-2.16q-6.41-2.76-6.4-8a7.76,7.76,0,0,1,.61-3.57q3.23,7.35,12.46,7.15a30.49,30.49,0,0,0,6.34-.81q8-1.89,11-1.89a7.21,7.21,0,0,1,2.83.54C110.06,355.21,110.64,355.89,110.64,356.74Zm-4-30.93a2.45,2.45,0,0,1-2.09,1.22c-.81,0-1.89-.14-3.23-.27q-6.14,0-13.88,3.63l1.95-2.56q-7.41-2.62-9.5-7.07a25.12,25.12,0,0,0,3.91.34q2.35,0,7-.38c3.08-.24,5.4-.37,7-.37a11.69,11.69,0,0,1,5.39,1.35Q106.13,323.32,106.6,325.81Z"/><path d="M100.94,425.69q0,3.71-2.49,11.05a78.72,78.72,0,0,1-4.32,10.65q-3.9,7.61-8.08,8.35A4.85,4.85,0,0,1,84,454.33c-.32-.81-.77-1.87-1.35-3.17A33.19,33.19,0,0,1,79,443.34q4.51,2.78,6.6,2.77,3.84,0,6.94-10.65c1.22-4.18,1.82-6.94,1.82-8.29q0-4.38-3.84-3.91a19.27,19.27,0,0,0-7,2.43q-.94,2.3-4.71,10.51-1.08,2.49-4.11,8.63a17.57,17.57,0,0,1-2.56,3.5c-1.31,1.39-2.34,2.11-3.1,2.16-.86-.5-1.28-1.89-1.28-4.18a11,11,0,0,1,.13-2.23l2.36-3.16A63.38,63.38,0,0,0,78,427.64l-5.59,1.82q-3-.73-5.66-4.38L69.4,425q3.1-.06,11.59-4.44a79.51,79.51,0,0,0,2.16-9.44l-1.48-3.84a7,7,0,0,1,6.26,3.1c.54.81.72,1.4.54,1.75l-2.29,7.08a24.15,24.15,0,0,1,6.4-1.68c.41,0,1.15,0,2.23.13a10.52,10.52,0,0,1,6.13,8Zm19.41,3c0,2.43-.75,3.64-2.23,3.64a5.43,5.43,0,0,1-2.59-.74c-.92-.49-1.81-1-2.66-1.55-1.17-.45-2.36-1-3.57-1.55q2.49-.4,3.09-3.64-1-2.49-6.46-8.82a20.7,20.7,0,0,1,9,4Q120.35,423.74,120.35,428.65Z"/><path d="M112.8,528.26q0,7.07-7.35,12.06a25,25,0,0,1-14.28,4.51,6.07,6.07,0,0,1-4.65-2.05A6.9,6.9,0,0,1,84.63,538a8.22,8.22,0,0,1-.13-1.48,8.37,8.37,0,0,1,1.62-4.92q2.35-3.3,5.18-3.3,4.19,0,10.11,7.07,5.59-3.71,5.46-9c-.05-1.88-1.12-3.48-3.24-4.78A10.14,10.14,0,0,0,98.31,520q-5.46,0-11.45,4.31a73,73,0,0,0-9,8c-1.7,2.2-2.85,3.71-3.43,4.52a4.53,4.53,0,0,1-2-4,6.8,6.8,0,0,1,1.48-4.32A42.49,42.49,0,0,1,78,523q1.76-2,4.25-5,3.36-5,10.51-14.69-4.18.54-5.46.54a5.41,5.41,0,0,1-4.18-2A20.76,20.76,0,0,1,80.72,499a15.46,15.46,0,0,0,3.31.41c1.07,0,3.32-.79,6.73-2.36s5.51-2.36,6.27-2.36a10.37,10.37,0,0,1,3.51,1.25c1.7.83,2.51,1.49,2.42,2q-.87,1.28-7.07,8.28a124.82,124.82,0,0,0-9.44,13q8.08-3.84,13.55-3.57a15.27,15.27,0,0,1,7.68,2.36,11.18,11.18,0,0,1,4.65,6.94A10.2,10.2,0,0,1,112.8,528.26Zm-15.09,9q-3.45-5.06-6.61-5.06a3.69,3.69,0,0,0-2.56,1.49,3.31,3.31,0,0,0-.87,2.22q0,3.64,3.7,3.84A11.58,11.58,0,0,0,97.71,537.29Z"/><path d="M102.89,593.77q0,1.89-10.17,5.52c-3,1.44-4.94,3.08-5.93,4.92q-.21.35-7.21,16.24-5.46,12.4-6.94,13.48c-1.71-.36-2.56-2.32-2.56-5.86a6.76,6.76,0,0,1,.6-2.63c.27-.5,1-1.69,2.09-3.57.45-.72,1.08-1.85,1.89-3.37s2-3.82,3.71-6.88c1.07-2,2.31-4.51,3.7-7.61a17.13,17.13,0,0,1-10-4q5.46-.4,13.88-4.32a102.63,102.63,0,0,0,3-10.24c-.59-1.75-1.08-3.07-1.48-4a28.7,28.7,0,0,0,3.77,1.28,3.19,3.19,0,0,1,2.29,2.69A23.22,23.22,0,0,0,91,593.5c2.39-1.08,4.18-2,5.39-2.63a11.78,11.78,0,0,1,3.71.94C102,592.53,102.89,593.18,102.89,593.77Zm13.48,34.9q-1.82,4.05-10.92,4a23.74,23.74,0,0,1-4-.57,20,20,0,0,1-3.84-1q-5.25-2.49-5.39-7.48,1.95,2.49,8.56,2.49a41.2,41.2,0,0,0,4.61-.37,41.34,41.34,0,0,1,4.62-.37,10.14,10.14,0,0,1,4,.74A3.81,3.81,0,0,1,116.37,628.67ZM115,607.78a2.09,2.09,0,0,1-.68,1.28l-5,1.08a32.82,32.82,0,0,0-6.74,2l2.15-3.64q-5.86.46-6.67.47a5.72,5.72,0,0,1-2.29-.68,4.61,4.61,0,0,1-2.16-1.61,10.4,10.4,0,0,0,3.58-.61l5-1.82a14.65,14.65,0,0,1,4.65-1,12.24,12.24,0,0,1,4.82,1.69Q115,606.57,115,607.78Z"/></svg>